<svg preserveAspectRatio="xMidYMid meet" data-bbox="0 0 383.5 137.1" viewBox="0 0 383.5 137.1" xmlns="http://www.w3.org/2000/svg" data-type="shape" role="presentation" aria-hidden="true" aria-labelledby="svgcid--ac811u-gdol18" fill="#ffffff"><title id="svgcid--ac811u-gdol18"></title>
    <g>
        <path d="m159.6 55.9 4.8 4.8v15.8c0 2 1.6 3.5 3.5 3.5H191V55.9h-31.4zm9.6 19.4V60.8h17v14.5h-17z"></path>
        <path d="m192.5 55.9 4.8 4.8v15.9c0 2 1.6 3.5 3.5 3.5h1.3v-9.7h11c2 0 3.5-1.6 3.5-3.5v-1.3h-14.5v-4.8H224V56h-31.5z"></path>
        <path d="M255.6 30h8.2v5.8h-28.2V12.1h40.2V0h-63.5l11.1 11.2v26.1c0 5.9 4.8 10.6 10.6 10.6h41.9v-30h-32.4L255.6 30z"></path>
        <path d="M327.3 0v33.6L293.7 0h-17.8L287 11.2v26.1c0 5.9 4.8 10.6 10.6 10.6h1.5V23.3l24.6 24.6h15.8V0h-12.2z"></path>
        <path d="M183.2 12.1h8v23.7h-8.9v1.5c0 5.9 4.8 10.6 10.6 10.6h19.4V35.8h-8.9V12.1h9V0h-41.1l11.9 12.1z"></path>
        <path d="M137.6 12.1h33.5V0h-63.5l11.1 11.2v26.1c0 5.9 4.8 10.6 10.6 10.6H171V35.8h-40.2V23.4l6.6 6.7h23c5.9 0 10.6-4.8 10.6-10.6V18h-27.8l-5.6-5.9z"></path>
        <path d="M107.7 19.4V0H44.1l11.1 11.2v26.1C55.2 43.2 60 48 65.9 48h1.5V23.3L92 47.9h18L92 30h5.1c5.8 0 10.6-4.7 10.6-10.6zm-27.8-1.5-5.8-5.8h21.5v5.8H79.9z"></path>
        <path d="M12 101.3h17v25.2c0 5.9 4.8 10.6 10.6 10.6h1.5v-35.8h22.3V89.2H0l12 12.1z"></path>
        <path d="M93.4 101.3H127V89.2H63.5l11.1 11.2v26.1c0 5.9 4.8 10.6 10.6 10.6h41.7V125H86.7v-12.4l6.6 6.7h23c5.9 0 10.6-4.8 10.6-10.6v-1.5H99.2l-5.8-5.9z"></path>
        <path d="m254.1 89.2 11.1 11.2v26.1c0 5.9 4.8 10.6 10.6 10.6h41.8V89.2h-63.5zm51.5 35.8h-28.2v-23.7h28.2V125z"></path>
        <path d="M190.3 108.6V89.2h-63.6l11.1 11.2v26.1c0 5.9 4.8 10.6 10.6 10.6h1.5v-24.6l24.6 24.6h18l-17.9-17.9h5.1c5.8 0 10.6-4.7 10.6-10.6zm-27.9-1.5-5.8-5.8h21.5v5.8h-15.7z"></path>
        <path d="M254.1 108.6V89.2h-63.6l11.1 11.2v26.1c0 5.9 4.8 10.6 10.6 10.6h1.5v-24.6l24.6 24.6h18l-17.9-17.9h5.1c5.9 0 10.6-4.7 10.6-10.6zm-27.8-1.5-5.8-5.8H242v5.8h-15.7z"></path>
        <path d="M381.3 108.6V89.2h-63.6l11.1 11.2v26.1c0 5.9 4.8 10.6 10.6 10.6h1.5v-24.6l24.6 24.6h18l-17.9-17.9h5.1c5.9 0 10.6-4.7 10.6-10.6zm-27.8-1.5-5.8-5.8h21.5v5.8h-15.7z"></path>
    </g>
</svg>